# xmcd
#
# Track frame offsets:
#	150
#	17421
#	31496
#	45005
#	58099
#	73377
#	90828
#	103893
#	121495
#	135592
#	148392
#	164347
#	182308
#	200412
#	208701
#	231179
#	250608
#
# Disc length: 3544 seconds
#
# Revision: 0
# Processed by: cddbd v1.5.2PL0 Copyright (c) Steve Scherf et al.
# Submitted via: EasyCDDAExtractor 2010.6.0.0
#
DISCID=e90dd611
DTITLE=Norman Blake - Green Light on the Southern
DYEAR=2011
DGENRE=traditioinal
TTITLE0=Roll On Buddy
TTITLE1=Goodby to the Plains
TTITLE2=Little Bunch of Roses
TTITLE3=The Tramp
TTITLE4=Hawaiian Mother O'Mine
TTITLE5=The Old Wooden Rocker
TTITLE6=Railroading on the Great Divide
TTITLE7=Steel Guitar Chimes
TTITLE8=Have NO Desire to Roam
TTITLE9=Green Light on the Southern
TTITLE10=Fifteen Miles From Birmingham
TTITLE11=The Wreck on the C&O
TTITLE12=He Rambled
TTITLE13=Whistling Rufus
TTITLE14=Goodby Old Stepstone
TTITLE15=Bandit Cole Younger
TTITLE16=The New Spanish Two Step
EXTD=
EXTT0=
EXTT1=
EXTT2=
EXTT3=
EXTT4=
EXTT5=
EXTT6=
EXTT7=
EXTT8=
EXTT9=
EXTT10=
EXTT11=
EXTT12=
EXTT13=
EXTT14=
EXTT15=
EXTT16=
PLAYORDER=
